<svg width="40" height="57" viewBox="0 0 40 57" fill="none" xmlns="http://www.w3.org/2000/svg">
<path fill-rule="evenodd" clip-rule="evenodd" d="M29.1049 0.332976C28.3451 0.544606 26.9355 1.13166 26.129 1.57247C22.1321 3.75723 20.3192 6.79432 20.1544 11.5816C20.1115 12.8254 20.1258 13.0897 20.2358 13.0877C20.5512 13.0821 22.1215 12.6329 22.9383 12.3148C25.3366 11.3804 27.5393 9.53058 28.5049 7.63941C29.4161 5.85509 29.8245 3.24554 29.5706 0.83007C29.5106 0.259251 29.4815 0.228094 29.1049 0.332976ZM27.8089 13.8694C26.7168 14.0066 25.8966 14.2819 24.0687 15.1248C20.5219 16.7602 19.92 16.7857 17.0135 15.4225C15.775 14.8416 14.7837 14.4438 14.1775 14.2845C12.1383 13.7485 9.50694 14.0811 7.6018 15.1158C4.61441 16.7383 1.88266 20.4366 0.751352 24.3902C-0.718248 29.5259 -0.000966938 37.0406 2.63095 44.083C4.91027 50.1818 8.48007 55.0008 11.5376 56.1064C12.9895 56.6314 13.9147 56.4912 16.6734 55.3277C19.0521 54.3246 19.7572 54.1127 20.9499 54.042C22.1713 53.9697 22.8723 54.1613 25.313 55.2342C29.349 57.0083 30.1756 56.8708 33.3307 53.8999C35.4047 51.947 36.4379 50.3313 38.2138 46.2642C38.9336 44.6156 40.0008 41.8164 40 41.5788C39.9997 41.5079 39.6788 41.2619 39.2868 41.0318C36.5462 39.4239 34.6468 36.5838 33.6969 32.6732C33.3683 31.3206 33.2796 28.8987 33.5109 27.5942C34.0172 24.7388 35.6691 21.9218 38.0334 19.8817C38.3233 19.6315 38.5604 19.3774 38.5604 19.3169C38.5604 19.2564 38.0528 18.6298 37.4325 17.9242C36.3092 16.6469 35.2769 15.7707 34.0966 15.0931C32.4177 14.1291 29.7992 13.6195 27.8089 13.8694Z" fill="#F8F0E3"/>
</svg>
